<mxfile host="app.diagrams.net" modified="2022-12-28T22:25:11.963Z" agent="5.0 (Windows NT 10.0; Win64; x64) AppleWebKit/537.36 (KHTML, like Gecko) Chrome/108.0.0.0 Safari/537.36" version="20.7.4" etag="ZJ8ApACR1i_HPb18bqLQ" type="github">
  <diagram id="99IXeZaeXL54ma1rn6DE" name="Page-1">
    <mxGraphModel dx="1221" dy="715" grid="1" gridSize="10" guides="1" tooltips="1" connect="1" arrows="1" fold="1" page="1" pageScale="1" pageWidth="850" pageHeight="1100" math="0" shadow="0">
      <root>
        <mxCell id="0" />
        <mxCell id="1" parent="0" />
        <mxCell id="Vc6nybRkeTXG-0M4zRYj-48" value="" style="group" vertex="1" connectable="0" parent="1">
          <mxGeometry x="10" y="110" width="260" height="510" as="geometry" />
        </mxCell>
        <mxCell id="Vc6nybRkeTXG-0M4zRYj-37" value="Internet" style="ellipse;shape=cloud;whiteSpace=wrap;html=1;" vertex="1" parent="Vc6nybRkeTXG-0M4zRYj-48">
          <mxGeometry x="175.67567567567568" y="185.45454545454547" width="84.32432432432432" height="61.81818181818182" as="geometry" />
        </mxCell>
        <mxCell id="Vc6nybRkeTXG-0M4zRYj-47" value="" style="group" vertex="1" connectable="0" parent="Vc6nybRkeTXG-0M4zRYj-48">
          <mxGeometry width="175.67567567567568" height="510" as="geometry" />
        </mxCell>
        <mxCell id="Vc6nybRkeTXG-0M4zRYj-1" value="Actor" style="shape=umlActor;verticalLabelPosition=bottom;verticalAlign=top;html=1;" vertex="1" parent="Vc6nybRkeTXG-0M4zRYj-47">
          <mxGeometry y="38.63636363636363" width="21.08108108108108" height="46.36363636363637" as="geometry" />
        </mxCell>
        <mxCell id="Vc6nybRkeTXG-0M4zRYj-2" value="Actor" style="shape=umlActor;verticalLabelPosition=bottom;verticalAlign=top;html=1;" vertex="1" parent="Vc6nybRkeTXG-0M4zRYj-47">
          <mxGeometry y="131.36363636363637" width="21.08108108108108" height="46.36363636363637" as="geometry" />
        </mxCell>
        <mxCell id="Vc6nybRkeTXG-0M4zRYj-3" value="" style="points=[];aspect=fixed;html=1;align=center;shadow=0;dashed=0;image;image=img/lib/allied_telesis/computer_and_terminals/Personal_Computer_with_Server.svg;" vertex="1" parent="Vc6nybRkeTXG-0M4zRYj-47">
          <mxGeometry x="49.18918918918919" width="25.149359886201992" height="25.149359886201992" as="geometry" />
        </mxCell>
        <mxCell id="Vc6nybRkeTXG-0M4zRYj-8" style="edgeStyle=orthogonalEdgeStyle;rounded=0;orthogonalLoop=1;jettySize=auto;html=1;" edge="1" parent="Vc6nybRkeTXG-0M4zRYj-47" source="Vc6nybRkeTXG-0M4zRYj-1" target="Vc6nybRkeTXG-0M4zRYj-3">
          <mxGeometry relative="1" as="geometry" />
        </mxCell>
        <mxCell id="Vc6nybRkeTXG-0M4zRYj-5" value="" style="points=[];aspect=fixed;html=1;align=center;shadow=0;dashed=0;image;image=img/lib/allied_telesis/computer_and_terminals/Personal_Computer_with_Server.svg;" vertex="1" parent="Vc6nybRkeTXG-0M4zRYj-47">
          <mxGeometry x="49.18918918918919" y="162.27272727272728" width="25.149359886201992" height="25.149359886201992" as="geometry" />
        </mxCell>
        <mxCell id="Vc6nybRkeTXG-0M4zRYj-11" style="edgeStyle=orthogonalEdgeStyle;rounded=0;orthogonalLoop=1;jettySize=auto;html=1;" edge="1" parent="Vc6nybRkeTXG-0M4zRYj-47" source="Vc6nybRkeTXG-0M4zRYj-2" target="Vc6nybRkeTXG-0M4zRYj-5">
          <mxGeometry relative="1" as="geometry" />
        </mxCell>
        <mxCell id="Vc6nybRkeTXG-0M4zRYj-6" value="" style="shape=mxgraph.cisco.people.pc_man;html=1;pointerEvents=1;dashed=0;fillColor=#036897;strokeColor=#ffffff;strokeWidth=2;verticalLabelPosition=bottom;verticalAlign=top;align=center;outlineConnect=0;" vertex="1" parent="Vc6nybRkeTXG-0M4zRYj-47">
          <mxGeometry y="409.54545454545456" width="42.16216216216216" height="54.09090909090909" as="geometry" />
        </mxCell>
        <mxCell id="Vc6nybRkeTXG-0M4zRYj-12" value="" style="points=[];aspect=fixed;html=1;align=center;shadow=0;dashed=0;image;image=img/lib/allied_telesis/computer_and_terminals/Personal_Computer_with_Server.svg;" vertex="1" parent="Vc6nybRkeTXG-0M4zRYj-47">
          <mxGeometry x="52.70270270270271" y="386.3636363636364" width="18.862019914651494" height="18.862019914651494" as="geometry" />
        </mxCell>
        <mxCell id="Vc6nybRkeTXG-0M4zRYj-19" style="edgeStyle=orthogonalEdgeStyle;rounded=0;orthogonalLoop=1;jettySize=auto;html=1;" edge="1" parent="Vc6nybRkeTXG-0M4zRYj-47" source="Vc6nybRkeTXG-0M4zRYj-6" target="Vc6nybRkeTXG-0M4zRYj-12">
          <mxGeometry relative="1" as="geometry" />
        </mxCell>
        <mxCell id="Vc6nybRkeTXG-0M4zRYj-13" value="" style="points=[];aspect=fixed;html=1;align=center;shadow=0;dashed=0;image;image=img/lib/allied_telesis/computer_and_terminals/Personal_Computer_with_Server.svg;" vertex="1" parent="Vc6nybRkeTXG-0M4zRYj-47">
          <mxGeometry x="52.70270270270271" y="448.1818181818182" width="18.862019914651494" height="18.862019914651494" as="geometry" />
        </mxCell>
        <mxCell id="Vc6nybRkeTXG-0M4zRYj-21" style="edgeStyle=orthogonalEdgeStyle;rounded=0;orthogonalLoop=1;jettySize=auto;html=1;" edge="1" parent="Vc6nybRkeTXG-0M4zRYj-47" source="Vc6nybRkeTXG-0M4zRYj-6" target="Vc6nybRkeTXG-0M4zRYj-13">
          <mxGeometry relative="1" as="geometry" />
        </mxCell>
        <mxCell id="Vc6nybRkeTXG-0M4zRYj-14" value="" style="points=[];aspect=fixed;html=1;align=center;shadow=0;dashed=0;image;image=img/lib/allied_telesis/computer_and_terminals/Personal_Computer_with_Server.svg;" vertex="1" parent="Vc6nybRkeTXG-0M4zRYj-47">
          <mxGeometry x="84.32432432432432" y="347.72727272727275" width="18.862019914651494" height="18.862019914651494" as="geometry" />
        </mxCell>
        <mxCell id="Vc6nybRkeTXG-0M4zRYj-22" style="edgeStyle=orthogonalEdgeStyle;rounded=0;orthogonalLoop=1;jettySize=auto;html=1;" edge="1" parent="Vc6nybRkeTXG-0M4zRYj-47" source="Vc6nybRkeTXG-0M4zRYj-12" target="Vc6nybRkeTXG-0M4zRYj-14">
          <mxGeometry relative="1" as="geometry" />
        </mxCell>
        <mxCell id="Vc6nybRkeTXG-0M4zRYj-15" value="" style="points=[];aspect=fixed;html=1;align=center;shadow=0;dashed=0;image;image=img/lib/allied_telesis/computer_and_terminals/Personal_Computer_with_Server.svg;" vertex="1" parent="Vc6nybRkeTXG-0M4zRYj-47">
          <mxGeometry x="84.32432432432432" y="417.2727272727273" width="18.862019914651494" height="18.862019914651494" as="geometry" />
        </mxCell>
        <mxCell id="Vc6nybRkeTXG-0M4zRYj-23" style="edgeStyle=orthogonalEdgeStyle;rounded=0;orthogonalLoop=1;jettySize=auto;html=1;" edge="1" parent="Vc6nybRkeTXG-0M4zRYj-47" source="Vc6nybRkeTXG-0M4zRYj-12" target="Vc6nybRkeTXG-0M4zRYj-15">
          <mxGeometry relative="1" as="geometry" />
        </mxCell>
        <mxCell id="Vc6nybRkeTXG-0M4zRYj-26" style="edgeStyle=orthogonalEdgeStyle;rounded=0;orthogonalLoop=1;jettySize=auto;html=1;" edge="1" parent="Vc6nybRkeTXG-0M4zRYj-47" source="Vc6nybRkeTXG-0M4zRYj-13" target="Vc6nybRkeTXG-0M4zRYj-15">
          <mxGeometry relative="1" as="geometry" />
        </mxCell>
        <mxCell id="Vc6nybRkeTXG-0M4zRYj-16" value="" style="points=[];aspect=fixed;html=1;align=center;shadow=0;dashed=0;image;image=img/lib/allied_telesis/computer_and_terminals/Personal_Computer_with_Server.svg;" vertex="1" parent="Vc6nybRkeTXG-0M4zRYj-47">
          <mxGeometry x="84.32432432432432" y="486.81818181818187" width="18.862019914651494" height="18.862019914651494" as="geometry" />
        </mxCell>
        <mxCell id="Vc6nybRkeTXG-0M4zRYj-24" style="edgeStyle=orthogonalEdgeStyle;rounded=0;orthogonalLoop=1;jettySize=auto;html=1;" edge="1" parent="Vc6nybRkeTXG-0M4zRYj-47" source="Vc6nybRkeTXG-0M4zRYj-12" target="Vc6nybRkeTXG-0M4zRYj-16">
          <mxGeometry relative="1" as="geometry" />
        </mxCell>
        <mxCell id="Vc6nybRkeTXG-0M4zRYj-25" style="edgeStyle=orthogonalEdgeStyle;rounded=0;orthogonalLoop=1;jettySize=auto;html=1;" edge="1" parent="Vc6nybRkeTXG-0M4zRYj-47" source="Vc6nybRkeTXG-0M4zRYj-13" target="Vc6nybRkeTXG-0M4zRYj-16">
          <mxGeometry relative="1" as="geometry" />
        </mxCell>
        <mxCell id="Vc6nybRkeTXG-0M4zRYj-17" value="" style="points=[];aspect=fixed;html=1;align=center;shadow=0;dashed=0;image;image=img/lib/allied_telesis/computer_and_terminals/Personal_Computer_with_Server.svg;" vertex="1" parent="Vc6nybRkeTXG-0M4zRYj-47">
          <mxGeometry x="133.51351351351352" y="448.1818181818182" width="18.862019914651494" height="18.862019914651494" as="geometry" />
        </mxCell>
        <mxCell id="Vc6nybRkeTXG-0M4zRYj-28" style="edgeStyle=orthogonalEdgeStyle;rounded=0;orthogonalLoop=1;jettySize=auto;html=1;" edge="1" parent="Vc6nybRkeTXG-0M4zRYj-47" source="Vc6nybRkeTXG-0M4zRYj-15" target="Vc6nybRkeTXG-0M4zRYj-17">
          <mxGeometry relative="1" as="geometry" />
        </mxCell>
        <mxCell id="Vc6nybRkeTXG-0M4zRYj-33" style="edgeStyle=orthogonalEdgeStyle;rounded=0;orthogonalLoop=1;jettySize=auto;html=1;entryX=-0.156;entryY=0.422;entryDx=0;entryDy=0;entryPerimeter=0;" edge="1" parent="Vc6nybRkeTXG-0M4zRYj-47" source="Vc6nybRkeTXG-0M4zRYj-15" target="Vc6nybRkeTXG-0M4zRYj-17">
          <mxGeometry relative="1" as="geometry" />
        </mxCell>
        <mxCell id="Vc6nybRkeTXG-0M4zRYj-29" style="edgeStyle=orthogonalEdgeStyle;rounded=0;orthogonalLoop=1;jettySize=auto;html=1;" edge="1" parent="Vc6nybRkeTXG-0M4zRYj-47" source="Vc6nybRkeTXG-0M4zRYj-16" target="Vc6nybRkeTXG-0M4zRYj-17">
          <mxGeometry relative="1" as="geometry" />
        </mxCell>
        <mxCell id="Vc6nybRkeTXG-0M4zRYj-18" value="" style="points=[];aspect=fixed;html=1;align=center;shadow=0;dashed=0;image;image=img/lib/allied_telesis/computer_and_terminals/Personal_Computer_with_Server.svg;" vertex="1" parent="Vc6nybRkeTXG-0M4zRYj-47">
          <mxGeometry x="133.51351351351352" y="386.3636363636364" width="18.862019914651494" height="18.862019914651494" as="geometry" />
        </mxCell>
        <mxCell id="Vc6nybRkeTXG-0M4zRYj-27" style="edgeStyle=orthogonalEdgeStyle;rounded=0;orthogonalLoop=1;jettySize=auto;html=1;" edge="1" parent="Vc6nybRkeTXG-0M4zRYj-47" source="Vc6nybRkeTXG-0M4zRYj-15" target="Vc6nybRkeTXG-0M4zRYj-18">
          <mxGeometry relative="1" as="geometry" />
        </mxCell>
        <mxCell id="Vc6nybRkeTXG-0M4zRYj-30" style="edgeStyle=orthogonalEdgeStyle;rounded=0;orthogonalLoop=1;jettySize=auto;html=1;" edge="1" parent="Vc6nybRkeTXG-0M4zRYj-47" source="Vc6nybRkeTXG-0M4zRYj-16" target="Vc6nybRkeTXG-0M4zRYj-18">
          <mxGeometry relative="1" as="geometry" />
        </mxCell>
        <mxCell id="Vc6nybRkeTXG-0M4zRYj-31" style="edgeStyle=orthogonalEdgeStyle;rounded=0;orthogonalLoop=1;jettySize=auto;html=1;" edge="1" parent="Vc6nybRkeTXG-0M4zRYj-47" source="Vc6nybRkeTXG-0M4zRYj-16" target="Vc6nybRkeTXG-0M4zRYj-18">
          <mxGeometry relative="1" as="geometry" />
        </mxCell>
        <mxCell id="Vc6nybRkeTXG-0M4zRYj-32" style="edgeStyle=orthogonalEdgeStyle;rounded=0;orthogonalLoop=1;jettySize=auto;html=1;entryX=0.6;entryY=0;entryDx=0;entryDy=0;entryPerimeter=0;" edge="1" parent="Vc6nybRkeTXG-0M4zRYj-47" source="Vc6nybRkeTXG-0M4zRYj-16" target="Vc6nybRkeTXG-0M4zRYj-18">
          <mxGeometry relative="1" as="geometry" />
        </mxCell>
        <mxCell id="Vc6nybRkeTXG-0M4zRYj-34" value="" style="points=[];aspect=fixed;html=1;align=center;shadow=0;dashed=0;image;image=img/lib/allied_telesis/computer_and_terminals/Personal_Computer_with_Server.svg;" vertex="1" parent="Vc6nybRkeTXG-0M4zRYj-47">
          <mxGeometry x="119.45945945945947" y="316.81818181818187" width="18.862019914651494" height="18.862019914651494" as="geometry" />
        </mxCell>
        <mxCell id="Vc6nybRkeTXG-0M4zRYj-35" style="edgeStyle=orthogonalEdgeStyle;rounded=0;orthogonalLoop=1;jettySize=auto;html=1;" edge="1" parent="Vc6nybRkeTXG-0M4zRYj-47" source="Vc6nybRkeTXG-0M4zRYj-14" target="Vc6nybRkeTXG-0M4zRYj-34">
          <mxGeometry relative="1" as="geometry" />
        </mxCell>
        <mxCell id="Vc6nybRkeTXG-0M4zRYj-36" style="edgeStyle=orthogonalEdgeStyle;rounded=0;orthogonalLoop=1;jettySize=auto;html=1;entryX=0.489;entryY=1.044;entryDx=0;entryDy=0;entryPerimeter=0;" edge="1" parent="Vc6nybRkeTXG-0M4zRYj-47" source="Vc6nybRkeTXG-0M4zRYj-15" target="Vc6nybRkeTXG-0M4zRYj-34">
          <mxGeometry relative="1" as="geometry" />
        </mxCell>
        <mxCell id="Vc6nybRkeTXG-0M4zRYj-38" value="" style="endArrow=classic;html=1;rounded=0;entryX=0.4;entryY=0.1;entryDx=0;entryDy=0;entryPerimeter=0;" edge="1" parent="Vc6nybRkeTXG-0M4zRYj-47" target="Vc6nybRkeTXG-0M4zRYj-37">
          <mxGeometry width="50" height="50" relative="1" as="geometry">
            <mxPoint x="77.2972972972973" y="15.454545454545455" as="sourcePoint" />
            <mxPoint x="112.43243243243244" y="-23.181818181818183" as="targetPoint" />
          </mxGeometry>
        </mxCell>
        <mxCell id="Vc6nybRkeTXG-0M4zRYj-39" value="" style="endArrow=classic;html=1;rounded=0;entryX=0.167;entryY=0.25;entryDx=0;entryDy=0;entryPerimeter=0;" edge="1" parent="Vc6nybRkeTXG-0M4zRYj-47" target="Vc6nybRkeTXG-0M4zRYj-37">
          <mxGeometry width="50" height="50" relative="1" as="geometry">
            <mxPoint x="70.27027027027027" y="85" as="sourcePoint" />
            <mxPoint x="202.3783783783784" y="261.1818181818182" as="targetPoint" />
          </mxGeometry>
        </mxCell>
        <mxCell id="Vc6nybRkeTXG-0M4zRYj-40" value="" style="endArrow=classic;html=1;rounded=0;entryX=0.07;entryY=0.4;entryDx=0;entryDy=0;entryPerimeter=0;" edge="1" parent="Vc6nybRkeTXG-0M4zRYj-47" target="Vc6nybRkeTXG-0M4zRYj-37">
          <mxGeometry width="50" height="50" relative="1" as="geometry">
            <mxPoint x="77.2972972972973" y="177.72727272727272" as="sourcePoint" />
            <mxPoint x="196.78486486486486" y="293.6363636363636" as="targetPoint" />
          </mxGeometry>
        </mxCell>
        <mxCell id="Vc6nybRkeTXG-0M4zRYj-4" value="" style="points=[];aspect=fixed;html=1;align=center;shadow=0;dashed=0;image;image=img/lib/allied_telesis/computer_and_terminals/Personal_Computer_with_Server.svg;" vertex="1" parent="Vc6nybRkeTXG-0M4zRYj-47">
          <mxGeometry x="49.18918918918919" y="69.54545454545455" width="25.149359886201992" height="25.149359886201992" as="geometry" />
        </mxCell>
        <mxCell id="Vc6nybRkeTXG-0M4zRYj-9" style="edgeStyle=orthogonalEdgeStyle;rounded=0;orthogonalLoop=1;jettySize=auto;html=1;" edge="1" parent="Vc6nybRkeTXG-0M4zRYj-47" source="Vc6nybRkeTXG-0M4zRYj-1" target="Vc6nybRkeTXG-0M4zRYj-4">
          <mxGeometry relative="1" as="geometry" />
        </mxCell>
        <mxCell id="Vc6nybRkeTXG-0M4zRYj-10" style="edgeStyle=orthogonalEdgeStyle;rounded=0;orthogonalLoop=1;jettySize=auto;html=1;" edge="1" parent="Vc6nybRkeTXG-0M4zRYj-47" source="Vc6nybRkeTXG-0M4zRYj-2" target="Vc6nybRkeTXG-0M4zRYj-4">
          <mxGeometry relative="1" as="geometry" />
        </mxCell>
        <mxCell id="Vc6nybRkeTXG-0M4zRYj-41" value="Normal Packets of data" style="text;html=1;align=center;verticalAlign=middle;whiteSpace=wrap;rounded=0;fillColor=default;" vertex="1" parent="Vc6nybRkeTXG-0M4zRYj-47">
          <mxGeometry x="91.35135135135135" y="50.227272727272734" width="56.21621621621622" height="42.5" as="geometry" />
        </mxCell>
        <mxCell id="Vc6nybRkeTXG-0M4zRYj-45" value="Malicious packets" style="text;html=1;strokeColor=none;fillColor=default;align=center;verticalAlign=middle;whiteSpace=wrap;rounded=0;" vertex="1" parent="Vc6nybRkeTXG-0M4zRYj-47">
          <mxGeometry x="133.51351351351352" y="270.45454545454544" width="42.16216216216216" height="23.181818181818183" as="geometry" />
        </mxCell>
        <mxCell id="Vc6nybRkeTXG-0M4zRYj-46" value="" style="endArrow=none;html=1;rounded=0;entryX=0.13;entryY=0.77;entryDx=0;entryDy=0;entryPerimeter=0;" edge="1" parent="Vc6nybRkeTXG-0M4zRYj-47" target="Vc6nybRkeTXG-0M4zRYj-45">
          <mxGeometry width="50" height="50" relative="1" as="geometry">
            <mxPoint x="133.51351351351352" y="316.81818181818187" as="sourcePoint" />
            <mxPoint x="186.6378378378378" y="233.05454545454538" as="targetPoint" />
          </mxGeometry>
        </mxCell>
        <mxCell id="Vc6nybRkeTXG-0M4zRYj-42" value="" style="endArrow=classic;html=1;rounded=0;entryX=0.13;entryY=0.77;entryDx=0;entryDy=0;entryPerimeter=0;startArrow=none;" edge="1" parent="Vc6nybRkeTXG-0M4zRYj-48" source="Vc6nybRkeTXG-0M4zRYj-45" target="Vc6nybRkeTXG-0M4zRYj-37">
          <mxGeometry width="50" height="50" relative="1" as="geometry">
            <mxPoint x="112.43243243243244" y="278.1818181818182" as="sourcePoint" />
            <mxPoint x="147.56756756756758" y="239.54545454545456" as="targetPoint" />
          </mxGeometry>
        </mxCell>
        <mxCell id="Vc6nybRkeTXG-0M4zRYj-44" value="" style="endArrow=classic;html=1;rounded=0;entryX=0.55;entryY=0.95;entryDx=0;entryDy=0;entryPerimeter=0;exitX=0.967;exitY=0.033;exitDx=0;exitDy=0;exitPerimeter=0;" edge="1" parent="Vc6nybRkeTXG-0M4zRYj-48" source="Vc6nybRkeTXG-0M4zRYj-17" target="Vc6nybRkeTXG-0M4zRYj-37">
          <mxGeometry width="50" height="50" relative="1" as="geometry">
            <mxPoint x="175.8207765287411" y="432.72727272727275" as="sourcePoint" />
            <mxPoint x="221.77297297297292" y="287.1454545454545" as="targetPoint" />
          </mxGeometry>
        </mxCell>
        <mxCell id="Vc6nybRkeTXG-0M4zRYj-43" value="" style="endArrow=classic;html=1;rounded=0;entryX=0.347;entryY=0.921;entryDx=0;entryDy=0;entryPerimeter=0;" edge="1" parent="Vc6nybRkeTXG-0M4zRYj-48" source="Vc6nybRkeTXG-0M4zRYj-18" target="Vc6nybRkeTXG-0M4zRYj-37">
          <mxGeometry width="50" height="50" relative="1" as="geometry">
            <mxPoint x="161.62162162162164" y="363.1818181818182" as="sourcePoint" />
            <mxPoint x="214.7459459459459" y="279.4181818181817" as="targetPoint" />
          </mxGeometry>
        </mxCell>
        <mxCell id="Vc6nybRkeTXG-0M4zRYj-49" value="Firewall" style="rounded=0;whiteSpace=wrap;html=1;fillColor=default;" vertex="1" parent="1">
          <mxGeometry x="310" y="300" width="100" height="60" as="geometry" />
        </mxCell>
        <mxCell id="Vc6nybRkeTXG-0M4zRYj-50" value="Proxy" style="rounded=0;whiteSpace=wrap;html=1;fillColor=default;" vertex="1" parent="1">
          <mxGeometry x="490" y="300" width="100" height="60" as="geometry" />
        </mxCell>
        <mxCell id="Vc6nybRkeTXG-0M4zRYj-64" style="edgeStyle=orthogonalEdgeStyle;rounded=0;orthogonalLoop=1;jettySize=auto;html=1;exitX=0.5;exitY=1;exitDx=0;exitDy=0;entryX=0.5;entryY=0;entryDx=0;entryDy=0;entryPerimeter=0;" edge="1" parent="1" source="Vc6nybRkeTXG-0M4zRYj-51" target="Vc6nybRkeTXG-0M4zRYj-61">
          <mxGeometry relative="1" as="geometry" />
        </mxCell>
        <mxCell id="Vc6nybRkeTXG-0M4zRYj-68" style="edgeStyle=orthogonalEdgeStyle;rounded=0;orthogonalLoop=1;jettySize=auto;html=1;entryX=0.5;entryY=1;entryDx=0;entryDy=0;entryPerimeter=0;" edge="1" parent="1" source="Vc6nybRkeTXG-0M4zRYj-51" target="Vc6nybRkeTXG-0M4zRYj-62">
          <mxGeometry relative="1" as="geometry">
            <Array as="points">
              <mxPoint x="750" y="420" />
              <mxPoint x="703" y="420" />
              <mxPoint x="703" y="543" />
              <mxPoint x="662" y="543" />
            </Array>
          </mxGeometry>
        </mxCell>
        <mxCell id="Vc6nybRkeTXG-0M4zRYj-51" value="Bruteforce CNN classifier" style="rounded=0;whiteSpace=wrap;html=1;fillColor=default;" vertex="1" parent="1">
          <mxGeometry x="700" y="300" width="100" height="60" as="geometry" />
        </mxCell>
        <mxCell id="Vc6nybRkeTXG-0M4zRYj-52" value="" style="endArrow=classic;html=1;rounded=0;exitX=0.875;exitY=0.5;exitDx=0;exitDy=0;exitPerimeter=0;entryX=0;entryY=0.5;entryDx=0;entryDy=0;" edge="1" parent="1" source="Vc6nybRkeTXG-0M4zRYj-37" target="Vc6nybRkeTXG-0M4zRYj-49">
          <mxGeometry width="50" height="50" relative="1" as="geometry">
            <mxPoint x="260" y="370" as="sourcePoint" />
            <mxPoint x="310" y="320" as="targetPoint" />
          </mxGeometry>
        </mxCell>
        <mxCell id="Vc6nybRkeTXG-0M4zRYj-53" value="" style="endArrow=classic;html=1;rounded=0;exitX=1;exitY=0.5;exitDx=0;exitDy=0;entryX=0;entryY=0.5;entryDx=0;entryDy=0;" edge="1" parent="1" source="Vc6nybRkeTXG-0M4zRYj-49" target="Vc6nybRkeTXG-0M4zRYj-50">
          <mxGeometry width="50" height="50" relative="1" as="geometry">
            <mxPoint x="410" y="380" as="sourcePoint" />
            <mxPoint x="480" y="330" as="targetPoint" />
          </mxGeometry>
        </mxCell>
        <mxCell id="Vc6nybRkeTXG-0M4zRYj-54" value="" style="endArrow=classic;html=1;rounded=0;entryX=0;entryY=0.5;entryDx=0;entryDy=0;" edge="1" parent="1" target="Vc6nybRkeTXG-0M4zRYj-51">
          <mxGeometry width="50" height="50" relative="1" as="geometry">
            <mxPoint x="590" y="330" as="sourcePoint" />
            <mxPoint x="640" y="280" as="targetPoint" />
          </mxGeometry>
        </mxCell>
        <mxCell id="Vc6nybRkeTXG-0M4zRYj-57" value="" style="shape=sumEllipse;perimeter=ellipsePerimeter;whiteSpace=wrap;html=1;backgroundOutline=1;fillColor=default;" vertex="1" parent="1">
          <mxGeometry x="725" y="100" width="50" height="80" as="geometry" />
        </mxCell>
        <mxCell id="Vc6nybRkeTXG-0M4zRYj-58" value="" style="endArrow=classic;html=1;rounded=0;exitX=0.5;exitY=0;exitDx=0;exitDy=0;" edge="1" parent="1" source="Vc6nybRkeTXG-0M4zRYj-51" target="Vc6nybRkeTXG-0M4zRYj-57">
          <mxGeometry width="50" height="50" relative="1" as="geometry">
            <mxPoint x="740" y="300" as="sourcePoint" />
            <mxPoint x="790" y="250" as="targetPoint" />
          </mxGeometry>
        </mxCell>
        <mxCell id="Vc6nybRkeTXG-0M4zRYj-59" value="Brute force traffic&lt;br&gt;" style="text;html=1;strokeColor=none;fillColor=default;align=center;verticalAlign=middle;whiteSpace=wrap;rounded=0;" vertex="1" parent="1">
          <mxGeometry x="710" y="220" width="90" height="30" as="geometry" />
        </mxCell>
        <mxCell id="Vc6nybRkeTXG-0M4zRYj-60" value="All traffic" style="text;html=1;strokeColor=none;fillColor=default;align=center;verticalAlign=middle;whiteSpace=wrap;rounded=0;" vertex="1" parent="1">
          <mxGeometry x="610" y="315" width="50" height="30" as="geometry" />
        </mxCell>
        <mxCell id="Vc6nybRkeTXG-0M4zRYj-71" style="edgeStyle=orthogonalEdgeStyle;rounded=0;orthogonalLoop=1;jettySize=auto;html=1;" edge="1" parent="1" source="Vc6nybRkeTXG-0M4zRYj-61">
          <mxGeometry relative="1" as="geometry">
            <mxPoint x="250" y="350" as="targetPoint" />
          </mxGeometry>
        </mxCell>
        <mxCell id="Vc6nybRkeTXG-0M4zRYj-61" value="" style="sketch=0;points=[[0,0,0],[0.25,0,0],[0.5,0,0],[0.75,0,0],[1,0,0],[0,1,0],[0.25,1,0],[0.5,1,0],[0.75,1,0],[1,1,0],[0,0.25,0],[0,0.5,0],[0,0.75,0],[1,0.25,0],[1,0.5,0],[1,0.75,0]];outlineConnect=0;fontColor=#232F3E;gradientColor=#F78E04;gradientDirection=north;fillColor=#D05C17;strokeColor=#ffffff;dashed=0;verticalLabelPosition=bottom;verticalAlign=top;align=center;html=1;fontSize=12;fontStyle=0;aspect=fixed;shape=mxgraph.aws4.resourceIcon;resIcon=mxgraph.aws4.outposts_1u_and_2u_servers;" vertex="1" parent="1">
          <mxGeometry x="580" y="480" width="43" height="43" as="geometry" />
        </mxCell>
        <mxCell id="Vc6nybRkeTXG-0M4zRYj-62" value="" style="sketch=0;points=[[0,0,0],[0.25,0,0],[0.5,0,0],[0.75,0,0],[1,0,0],[0,1,0],[0.25,1,0],[0.5,1,0],[0.75,1,0],[1,1,0],[0,0.25,0],[0,0.5,0],[0,0.75,0],[1,0.25,0],[1,0.5,0],[1,0.75,0]];outlineConnect=0;fontColor=#232F3E;gradientColor=#F78E04;gradientDirection=north;fillColor=#D05C17;strokeColor=#ffffff;dashed=0;verticalLabelPosition=bottom;verticalAlign=top;align=center;html=1;fontSize=12;fontStyle=0;aspect=fixed;shape=mxgraph.aws4.resourceIcon;resIcon=mxgraph.aws4.outposts_1u_and_2u_servers;" vertex="1" parent="1">
          <mxGeometry x="640" y="480" width="43" height="43" as="geometry" />
        </mxCell>
        <mxCell id="Vc6nybRkeTXG-0M4zRYj-69" value="Application servers" style="text;html=1;strokeColor=none;fillColor=none;align=center;verticalAlign=middle;whiteSpace=wrap;rounded=0;" vertex="1" parent="1">
          <mxGeometry x="590" y="530" width="60" height="30" as="geometry" />
        </mxCell>
        <mxCell id="Vc6nybRkeTXG-0M4zRYj-70" value="" style="endArrow=classic;startArrow=classic;html=1;rounded=0;" edge="1" parent="1" target="Vc6nybRkeTXG-0M4zRYj-62">
          <mxGeometry width="50" height="50" relative="1" as="geometry">
            <mxPoint x="620" y="502" as="sourcePoint" />
            <mxPoint x="620" y="460" as="targetPoint" />
          </mxGeometry>
        </mxCell>
        <mxCell id="Vc6nybRkeTXG-0M4zRYj-72" value="processed request" style="text;html=1;strokeColor=none;fillColor=default;align=center;verticalAlign=middle;whiteSpace=wrap;rounded=0;" vertex="1" parent="1">
          <mxGeometry x="340" y="486.5" width="110" height="30" as="geometry" />
        </mxCell>
      </root>
    </mxGraphModel>
  </diagram>
</mxfile>
